<svg width="42.738525" height="50.681152" viewBox="0 0 42.7385 50.6812" fill="none" xmlns="http://www.w3.org/2000/svg" xmlns:xlink="http://www.w3.org/1999/xlink">
	<desc>
			Created with Pixso.
	</desc>
	<defs>
		<filter id="filter_91_24_dd" x="0.000000" y="0.000000" width="42.738525" height="50.681152" filterUnits="userSpaceOnUse" color-interpolation-filters="sRGB">
			<feFlood flood-opacity="0" result="BackgroundImageFix"/>
			<feColorMatrix in="SourceAlpha" type="matrix" values="0 0 0 0 0 0 0 0 0 0 0 0 0 0 0 0 0 0 127 0" result="hardAlpha"/>
			<feOffset dx="4" dy="4"/>
			<feGaussianBlur stdDeviation="1.33333"/>
			<feComposite in2="hardAlpha" operator="out" k2="-1" k3="1"/>
			<feColorMatrix type="matrix" values="0 0 0 0 0 0 0 0 0 0 0 0 0 0 0 0 0 0 0.25 0"/>
			<feBlend mode="normal" in2="BackgroundImageFix" result="effect_dropShadow_1"/>
			<feBlend mode="normal" in="SourceGraphic" in2="effect_dropShadow_1" result="shape"/>
		</filter>
		<radialGradient gradientTransform="translate(17.2 19.271) rotate(90) scale(35.5 21)" cx="0.000000" cy="0.000000" r="1.000000" id="paint_angular_91_24_0" gradientUnits="userSpaceOnUse">
			<stop offset="0.300000" stop-color="#FFD280"/>
			<stop offset="0.890000" stop-color="#FFE3AF"/>
		</radialGradient>
	</defs>
	<g filter="url(#filter_91_24_dd)">
		<path id="C" d="M4.26 38.41Q7.56 41.68 14.44 41.68L21.64 41.68Q27.27 41.68 30.25 39.37C32.23 37.83 33.38 35.38 33.7 32.02C33.82 31.18 33.66 30.54 33.22 30.1C32.78 29.66 32.14 29.44 31.3 29.44Q30.3 29.44 29.67 29.92Q28.86 30.54 28.66 31.96C28.46 33.78 27.82 35.02 26.74 35.68C25.68 36.32 23.98 36.64 21.64 36.64L14.44 36.64Q11.23 36.64 9.39 35.89Q8.48 35.5 7.83 34.84Q7.17 34.19 6.78 33.28Q6.03 31.45 6.03 28.24L6.03 14.44Q6.03 11.2 6.78 9.37C7.3 8.13 8.16 7.26 9.36 6.76C10.59 6.26 12.26 6.02 14.38 6.04L21.64 6.04C23.98 6.04 25.68 6.36 26.74 7C27.82 7.64 28.46 8.88 28.66 10.72Q28.86 12.14 29.67 12.76Q30.3 13.24 31.3 13.24C32.14 13.24 32.78 13.02 33.22 12.58C33.66 12.14 33.82 11.5 33.7 10.66C33.38 7.32 32.23 4.88 30.25 3.34Q27.28 1 21.64 1L14.38 1C9.81 0.96 6.44 2.04 4.26 4.24Q0.99 7.51 0.99 14.44L0.99 28.24Q0.99 35.11 4.26 38.41Z" fill="#DAA000" fill-opacity="1.000000" fill-rule="evenodd"/>
		<path id="C" d="M14.44 41.68C9.85 41.68 6.46 40.59 4.26 38.41C2.08 36.21 0.99 32.82 0.99 28.24L0.99 14.44C0.99 9.82 2.08 6.42 4.26 4.24C6.44 2.04 9.81 0.96 14.38 1L21.64 1C25.4 1 28.27 1.78 30.25 3.34C32.23 4.88 33.38 7.32 33.7 10.66C33.82 11.5 33.66 12.14 33.22 12.58C32.78 13.02 32.14 13.24 31.3 13.24C29.78 13.24 28.9 12.4 28.66 10.72C28.46 8.88 27.82 7.64 26.74 7C25.68 6.36 23.98 6.04 21.64 6.04L14.38 6.04C12.26 6.02 10.59 6.26 9.36 6.76C8.16 7.26 7.3 8.13 6.78 9.37C6.28 10.59 6.03 12.28 6.03 14.44L6.03 28.24C6.03 30.38 6.28 32.06 6.78 33.28C7.3 34.5 8.17 35.37 9.39 35.89C10.62 36.39 12.3 36.64 14.44 36.64L21.64 36.64C23.98 36.64 25.68 36.32 26.74 35.68C27.82 35.02 28.46 33.78 28.66 31.96C28.9 30.28 29.78 29.44 31.3 29.44C32.14 29.44 32.78 29.66 33.22 30.1C33.66 30.54 33.82 31.18 33.7 32.02C33.38 35.38 32.23 37.83 30.25 39.37C28.27 40.91 25.4 41.68 21.64 41.68L14.44 41.68Z" stroke="url(#paint_angular_91_24_0)" stroke-opacity="1.000000" stroke-width="1.000000"/>
	</g>
</svg>
