<svg width="42.219971" height="50.680176" viewBox="0 0 42.22 50.6802" fill="none" xmlns="http://www.w3.org/2000/svg" xmlns:xlink="http://www.w3.org/1999/xlink">
	<desc>
			Created with Pixso.
	</desc>
	<defs>
		<filter id="filter_91_23_dd" x="0.000000" y="0.000000" width="42.219971" height="50.680176" filterUnits="userSpaceOnUse" color-interpolation-filters="sRGB">
			<feFlood flood-opacity="0" result="BackgroundImageFix"/>
			<feColorMatrix in="SourceAlpha" type="matrix" values="0 0 0 0 0 0 0 0 0 0 0 0 0 0 0 0 0 0 127 0" result="hardAlpha"/>
			<feOffset dx="4" dy="4"/>
			<feGaussianBlur stdDeviation="1.33333"/>
			<feComposite in2="hardAlpha" operator="out" k2="-1" k3="1"/>
			<feColorMatrix type="matrix" values="0 0 0 0 0 0 0 0 0 0 0 0 0 0 0 0 0 0 0.25 0"/>
			<feBlend mode="normal" in2="BackgroundImageFix" result="effect_dropShadow_1"/>
			<feBlend mode="normal" in="SourceGraphic" in2="effect_dropShadow_1" result="shape"/>
		</filter>
		<radialGradient gradientTransform="translate(16.76 19.27) rotate(90) scale(35.5 22)" cx="0.000000" cy="0.000000" r="1.000000" id="paint_angular_91_23_0" gradientUnits="userSpaceOnUse">
			<stop offset="0.300000" stop-color="#FFD280"/>
			<stop offset="0.890000" stop-color="#FFE3AF"/>
		</radialGradient>
	</defs>
	<g filter="url(#filter_91_23_dd)">
		<path id="D" d="M1.63 41.05Q2.26 41.68 3.52 41.68L17.98 41.68Q25.87 41.68 29.53 37.99C31.99 35.5 33.22 31.66 33.22 26.44L33.22 16.24C33.22 11.02 31.98 7.18 29.5 4.72Q25.81 1 17.98 1L3.52 1C1.84 1 1 1.84 1 3.52L1 39.16Q1 40.41 1.63 41.05ZM17.98 36.64L6.04 36.64L6.04 6.04L17.98 6.04C20.54 6.04 22.56 6.36 24.04 7Q25.18 7.48 25.98 8.3Q26.76 9.1 27.22 10.21C27.86 11.69 28.18 13.7 28.18 16.24L28.18 26.44C28.18 29 27.86 31.03 27.22 32.53C26.6 34 25.54 35.07 24.04 35.71C22.56 36.33 20.54 36.64 17.98 36.64Z" fill="#DAA000" fill-opacity="1.000000" fill-rule="evenodd"/>
		<path id="D" d="M3.52 41.68C1.84 41.68 1 40.84 1 39.16L1 3.52C1 1.84 1.84 1 3.52 1L17.98 1C23.2 1 27.04 2.24 29.5 4.72C31.98 7.18 33.22 11.02 33.22 16.24L33.22 26.44C33.22 31.66 31.99 35.5 29.53 37.99C27.09 40.45 23.24 41.68 17.98 41.68L3.52 41.68ZM6.04 36.64L17.98 36.64C20.54 36.64 22.56 36.33 24.04 35.71C25.54 35.07 26.6 34 27.22 32.53C27.86 31.03 28.18 29 28.18 26.44L28.18 16.24C28.18 13.7 27.86 11.69 27.22 10.21C26.6 8.71 25.54 7.64 24.04 7C22.56 6.36 20.54 6.04 17.98 6.04L6.04 6.04L6.04 36.64Z" stroke="url(#paint_angular_91_23_0)" stroke-opacity="1.000000" stroke-width="1.000000"/>
	</g>
</svg>
